<mxfile host="app.diagrams.net" modified="2024-01-27T00:21:13.606Z" agent="Mozilla/5.0 (Windows NT 10.0; Win64; x64; rv:122.0) Gecko/20100101 Firefox/122.0" etag="kxavoUspFXRxRRNb5eit" version="22.1.21" type="github">
  <diagram name="Page-1" id="gWC5OTmyWbw0FQMctwjD">
    <mxGraphModel dx="875" dy="442" grid="1" gridSize="10" guides="1" tooltips="1" connect="1" arrows="1" fold="1" page="1" pageScale="1" pageWidth="850" pageHeight="1100" math="0" shadow="0">
      <root>
        <mxCell id="0" />
        <mxCell id="1" parent="0" />
        <mxCell id="HYu92VjwiYjPSkhs1nvj-1" value="&lt;div&gt;ADMIN&lt;/div&gt;" style="rounded=1;whiteSpace=wrap;html=1;" vertex="1" parent="1">
          <mxGeometry x="290" y="90" width="80" height="40" as="geometry" />
        </mxCell>
        <mxCell id="HYu92VjwiYjPSkhs1nvj-2" value="&lt;div&gt;USER&lt;/div&gt;" style="rounded=1;whiteSpace=wrap;html=1;" vertex="1" parent="1">
          <mxGeometry x="460" y="90" width="90" height="40" as="geometry" />
        </mxCell>
        <mxCell id="HYu92VjwiYjPSkhs1nvj-4" value="MOVIE&lt;br&gt;LIST" style="whiteSpace=wrap;html=1;aspect=fixed;" vertex="1" parent="1">
          <mxGeometry x="370" y="270" width="80" height="80" as="geometry" />
        </mxCell>
        <mxCell id="HYu92VjwiYjPSkhs1nvj-5" value="VIEW DETAILS OF ONE MOVIE" style="whiteSpace=wrap;html=1;aspect=fixed;" vertex="1" parent="1">
          <mxGeometry x="370" y="400" width="80" height="80" as="geometry" />
        </mxCell>
        <mxCell id="HYu92VjwiYjPSkhs1nvj-7" value="" style="outlineConnect=0;dashed=0;verticalLabelPosition=bottom;verticalAlign=top;align=center;html=1;shape=mxgraph.aws3.office_building;fillColor=#7D7C7C;gradientColor=none;" vertex="1" parent="1">
          <mxGeometry x="394" y="520" width="33" height="79.5" as="geometry" />
        </mxCell>
        <mxCell id="HYu92VjwiYjPSkhs1nvj-8" value="&lt;div&gt;CINEMARK&lt;/div&gt;" style="text;html=1;align=center;verticalAlign=middle;resizable=0;points=[];autosize=1;strokeColor=none;fillColor=none;" vertex="1" parent="1">
          <mxGeometry x="370" y="608" width="80" height="30" as="geometry" />
        </mxCell>
        <mxCell id="HYu92VjwiYjPSkhs1nvj-9" value="&lt;div&gt;ADD DATA FOR A NEW MOVIE&lt;/div&gt;" style="ellipse;whiteSpace=wrap;html=1;" vertex="1" parent="1">
          <mxGeometry x="140" y="200" width="120" height="80" as="geometry" />
        </mxCell>
        <mxCell id="HYu92VjwiYjPSkhs1nvj-10" value="&lt;div&gt;DELETE A MOVIE&lt;/div&gt;" style="ellipse;whiteSpace=wrap;html=1;" vertex="1" parent="1">
          <mxGeometry x="140" y="330" width="130" height="60" as="geometry" />
        </mxCell>
        <mxCell id="HYu92VjwiYjPSkhs1nvj-11" value="UPDATE DATA FOR ONE MOVIE" style="ellipse;whiteSpace=wrap;html=1;" vertex="1" parent="1">
          <mxGeometry x="150" y="440" width="120" height="80" as="geometry" />
        </mxCell>
        <mxCell id="HYu92VjwiYjPSkhs1nvj-13" value="" style="endArrow=classic;html=1;rounded=0;exitX=0.625;exitY=1;exitDx=0;exitDy=0;exitPerimeter=0;entryX=0;entryY=0.375;entryDx=0;entryDy=0;entryPerimeter=0;fillColor=#ffe6cc;strokeColor=#d79b00;" edge="1" parent="1" source="HYu92VjwiYjPSkhs1nvj-1" target="HYu92VjwiYjPSkhs1nvj-3">
          <mxGeometry width="50" height="50" relative="1" as="geometry">
            <mxPoint x="310" y="190" as="sourcePoint" />
            <mxPoint x="360" y="140" as="targetPoint" />
          </mxGeometry>
        </mxCell>
        <mxCell id="HYu92VjwiYjPSkhs1nvj-15" value="" style="endArrow=classic;startArrow=classic;html=1;rounded=0;exitX=0;exitY=0;exitDx=0;exitDy=0;exitPerimeter=0;fillColor=#ffe6cc;strokeColor=#d79b00;" edge="1" parent="1" source="HYu92VjwiYjPSkhs1nvj-4">
          <mxGeometry width="50" height="50" relative="1" as="geometry">
            <mxPoint x="320" y="280" as="sourcePoint" />
            <mxPoint x="370" y="230" as="targetPoint" />
          </mxGeometry>
        </mxCell>
        <mxCell id="HYu92VjwiYjPSkhs1nvj-16" value="" style="endArrow=classic;startArrow=classic;html=1;rounded=0;exitX=0;exitY=0;exitDx=0;exitDy=0;fillColor=#ffe6cc;strokeColor=#d79b00;" edge="1" parent="1" source="HYu92VjwiYjPSkhs1nvj-5">
          <mxGeometry width="50" height="50" relative="1" as="geometry">
            <mxPoint x="370" y="390" as="sourcePoint" />
            <mxPoint x="370" y="350" as="targetPoint" />
          </mxGeometry>
        </mxCell>
        <mxCell id="HYu92VjwiYjPSkhs1nvj-17" value="" style="endArrow=classic;startArrow=classic;html=1;rounded=0;exitX=1;exitY=0.625;exitDx=0;exitDy=0;exitPerimeter=0;fillColor=#ffe6cc;strokeColor=#d79b00;" edge="1" parent="1" source="HYu92VjwiYjPSkhs1nvj-9">
          <mxGeometry width="50" height="50" relative="1" as="geometry">
            <mxPoint x="380" y="280" as="sourcePoint" />
            <mxPoint x="360" y="280" as="targetPoint" />
          </mxGeometry>
        </mxCell>
        <mxCell id="HYu92VjwiYjPSkhs1nvj-18" value="" style="endArrow=classic;startArrow=classic;html=1;rounded=0;fillColor=#ffe6cc;strokeColor=#d79b00;entryX=0;entryY=0.875;entryDx=0;entryDy=0;entryPerimeter=0;exitX=0.984;exitY=0.234;exitDx=0;exitDy=0;exitPerimeter=0;" edge="1" parent="1" source="HYu92VjwiYjPSkhs1nvj-10" target="HYu92VjwiYjPSkhs1nvj-4">
          <mxGeometry width="50" height="50" relative="1" as="geometry">
            <mxPoint x="270" y="380" as="sourcePoint" />
            <mxPoint x="360" y="340" as="targetPoint" />
          </mxGeometry>
        </mxCell>
        <mxCell id="HYu92VjwiYjPSkhs1nvj-19" value="" style="endArrow=classic;startArrow=classic;html=1;rounded=0;exitX=0;exitY=0;exitDx=0;exitDy=0;exitPerimeter=0;fillColor=#ffe6cc;strokeColor=#d79b00;entryX=0;entryY=0.75;entryDx=0;entryDy=0;" edge="1" parent="1" target="HYu92VjwiYjPSkhs1nvj-5">
          <mxGeometry width="50" height="50" relative="1" as="geometry">
            <mxPoint x="270" y="470" as="sourcePoint" />
            <mxPoint x="270" y="430" as="targetPoint" />
          </mxGeometry>
        </mxCell>
        <mxCell id="HYu92VjwiYjPSkhs1nvj-20" value="" style="endArrow=classic;html=1;rounded=0;exitX=0.625;exitY=1;exitDx=0;exitDy=0;exitPerimeter=0;entryX=0;entryY=0.375;entryDx=0;entryDy=0;entryPerimeter=0;fillColor=#ffe6cc;strokeColor=#d79b00;" edge="1" parent="1" source="HYu92VjwiYjPSkhs1nvj-3">
          <mxGeometry width="50" height="50" relative="1" as="geometry">
            <mxPoint x="350" y="140" as="sourcePoint" />
            <mxPoint x="380" y="190" as="targetPoint" />
          </mxGeometry>
        </mxCell>
        <mxCell id="HYu92VjwiYjPSkhs1nvj-21" value="" style="endArrow=classic;html=1;rounded=0;exitX=0.434;exitY=1.018;exitDx=0;exitDy=0;exitPerimeter=0;entryX=1.014;entryY=0.12;entryDx=0;entryDy=0;entryPerimeter=0;fillColor=#e1d5e7;strokeColor=#9673a6;" edge="1" parent="1" source="HYu92VjwiYjPSkhs1nvj-2" target="HYu92VjwiYjPSkhs1nvj-3">
          <mxGeometry width="50" height="50" relative="1" as="geometry">
            <mxPoint x="460" y="130" as="sourcePoint" />
            <mxPoint x="480.5" y="170" as="targetPoint" />
          </mxGeometry>
        </mxCell>
        <mxCell id="HYu92VjwiYjPSkhs1nvj-3" value="&lt;div&gt;LOGIN&lt;/div&gt;&lt;div&gt;PAGE&lt;/div&gt;" style="whiteSpace=wrap;html=1;aspect=fixed;" vertex="1" parent="1">
          <mxGeometry x="370.5" y="150" width="80" height="80" as="geometry" />
        </mxCell>
        <mxCell id="HYu92VjwiYjPSkhs1nvj-22" value="" style="endArrow=classic;startArrow=classic;html=1;rounded=0;exitX=0.994;exitY=1;exitDx=0;exitDy=0;exitPerimeter=0;entryX=1;entryY=0;entryDx=0;entryDy=0;entryPerimeter=0;fillColor=#e1d5e7;strokeColor=#9673a6;" edge="1" parent="1" source="HYu92VjwiYjPSkhs1nvj-3" target="HYu92VjwiYjPSkhs1nvj-4">
          <mxGeometry width="50" height="50" relative="1" as="geometry">
            <mxPoint x="470" y="260" as="sourcePoint" />
            <mxPoint x="520" y="210" as="targetPoint" />
          </mxGeometry>
        </mxCell>
        <mxCell id="HYu92VjwiYjPSkhs1nvj-24" value="" style="endArrow=classic;startArrow=classic;html=1;rounded=0;exitX=1;exitY=1;exitDx=0;exitDy=0;exitPerimeter=0;entryX=1;entryY=0;entryDx=0;entryDy=0;entryPerimeter=0;fillColor=#e1d5e7;strokeColor=#9673a6;" edge="1" parent="1" source="HYu92VjwiYjPSkhs1nvj-4" target="HYu92VjwiYjPSkhs1nvj-5">
          <mxGeometry width="50" height="50" relative="1" as="geometry">
            <mxPoint x="480" y="350" as="sourcePoint" />
            <mxPoint x="480" y="390" as="targetPoint" />
          </mxGeometry>
        </mxCell>
        <mxCell id="HYu92VjwiYjPSkhs1nvj-25" value="" style="endArrow=classic;startArrow=classic;html=1;rounded=0;exitX=0.994;exitY=1;exitDx=0;exitDy=0;exitPerimeter=0;fillColor=#e1d5e7;strokeColor=#9673a6;" edge="1" parent="1">
          <mxGeometry width="50" height="50" relative="1" as="geometry">
            <mxPoint x="449.26" y="480" as="sourcePoint" />
            <mxPoint x="430" y="530" as="targetPoint" />
          </mxGeometry>
        </mxCell>
        <mxCell id="HYu92VjwiYjPSkhs1nvj-26" value="" style="endArrow=classic;startArrow=classic;html=1;rounded=0;fillColor=#ffe6cc;strokeColor=#d79b00;" edge="1" parent="1" source="HYu92VjwiYjPSkhs1nvj-7">
          <mxGeometry width="50" height="50" relative="1" as="geometry">
            <mxPoint x="370.5" y="530" as="sourcePoint" />
            <mxPoint x="370.5" y="480" as="targetPoint" />
          </mxGeometry>
        </mxCell>
      </root>
    </mxGraphModel>
  </diagram>
</mxfile>
